<svg width="583" height="255" viewBox="0 0 583 255" fill="none" xmlns="http://www.w3.org/2000/svg">
<path d="M525.441 132.874L513.574 133.604C513.371 132.59 512.935 131.677 512.265 130.865C511.596 130.034 510.713 129.374 509.618 128.888C508.543 128.38 507.255 128.127 505.754 128.127C503.745 128.127 502.051 128.553 500.672 129.405C499.293 130.237 498.603 131.352 498.603 132.752C498.603 133.868 499.049 134.811 499.942 135.582C500.834 136.353 502.366 136.971 504.536 137.438L512.996 139.142C517.54 140.075 520.927 141.576 523.159 143.645C525.39 145.714 526.506 148.433 526.506 151.8C526.506 154.863 525.603 157.551 523.798 159.864C522.013 162.176 519.558 163.982 516.434 165.28C513.33 166.558 509.75 167.197 505.693 167.197C499.506 167.197 494.576 165.909 490.905 163.333C487.253 160.736 485.113 157.206 484.484 152.743L497.234 152.074C497.619 153.961 498.552 155.401 500.033 156.395C501.514 157.369 503.411 157.855 505.723 157.855C507.995 157.855 509.821 157.419 511.2 156.547C512.6 155.654 513.31 154.508 513.33 153.109C513.31 151.932 512.813 150.968 511.839 150.218C510.866 149.447 509.364 148.859 507.336 148.453L499.242 146.84C494.678 145.927 491.28 144.345 489.048 142.094C486.837 139.842 485.732 136.971 485.732 133.482C485.732 130.48 486.543 127.894 488.166 125.723C489.809 123.552 492.112 121.879 495.073 120.702C498.055 119.526 501.544 118.938 505.541 118.938C511.444 118.938 516.089 120.185 519.477 122.68C522.885 125.175 524.873 128.573 525.441 132.874Z" fill="black"/>
<path d="M437.776 166.317V104H450.739V127.43H451.134C451.702 126.172 452.524 124.894 453.599 123.596C454.694 122.277 456.114 121.182 457.859 120.31C459.624 119.417 461.815 118.971 464.432 118.971C467.84 118.971 470.984 119.863 473.864 121.648C476.745 123.413 479.047 126.081 480.772 129.651C482.496 133.201 483.358 137.654 483.358 143.009C483.358 148.223 482.516 152.625 480.832 156.215C479.169 159.785 476.897 162.494 474.016 164.34C471.156 166.165 467.951 167.078 464.401 167.078C461.886 167.078 459.746 166.662 457.981 165.831C456.236 164.999 454.806 163.954 453.69 162.696C452.575 161.418 451.723 160.13 451.134 158.832H450.556V166.317H437.776ZM450.465 142.948C450.465 145.727 450.85 148.152 451.621 150.221C452.392 152.29 453.508 153.903 454.968 155.059C456.429 156.195 458.204 156.763 460.293 156.763C462.403 156.763 464.188 156.185 465.649 155.028C467.109 153.852 468.215 152.229 468.965 150.16C469.736 148.07 470.122 145.667 470.122 142.948C470.122 140.25 469.746 137.877 468.996 135.828C468.245 133.779 467.14 132.177 465.679 131.02C464.219 129.864 462.423 129.286 460.293 129.286C458.184 129.286 456.398 129.844 454.938 130.96C453.498 132.075 452.392 133.658 451.621 135.706C450.85 137.755 450.465 140.169 450.465 142.948Z" fill="black"/>
<path d="M408.624 167.206C405.642 167.206 402.984 166.688 400.652 165.654C398.319 164.599 396.473 163.047 395.114 160.998C393.775 158.929 393.105 156.353 393.105 153.269C393.105 150.673 393.582 148.492 394.536 146.727C395.489 144.962 396.787 143.542 398.43 142.467C400.074 141.392 401.94 140.581 404.029 140.033C406.139 139.485 408.35 139.1 410.663 138.877C413.381 138.593 415.572 138.329 417.235 138.086C418.899 137.822 420.106 137.436 420.856 136.929C421.607 136.422 421.982 135.672 421.982 134.678V134.495C421.982 132.568 421.373 131.077 420.156 130.022C418.959 128.967 417.255 128.44 415.044 128.44C412.711 128.44 410.855 128.957 409.476 129.992C408.096 131.006 407.184 132.284 406.737 133.826L394.749 132.852C395.357 130.012 396.554 127.557 398.339 125.488C400.124 123.399 402.427 121.796 405.246 120.681C408.086 119.545 411.373 118.977 415.105 118.977C417.702 118.977 420.187 119.281 422.56 119.889C424.954 120.498 427.074 121.441 428.92 122.719C430.786 123.997 432.257 125.64 433.332 127.649C434.407 129.637 434.944 132.02 434.944 134.799V166.323H422.651V159.842H422.286C421.536 161.302 420.532 162.591 419.274 163.706C418.016 164.802 416.505 165.664 414.74 166.293C412.975 166.901 410.936 167.206 408.624 167.206ZM412.336 158.26C414.243 158.26 415.927 157.884 417.387 157.134C418.848 156.363 419.994 155.328 420.826 154.03C421.657 152.732 422.073 151.261 422.073 149.618V144.658C421.668 144.922 421.11 145.165 420.4 145.388C419.71 145.591 418.929 145.784 418.057 145.967C417.184 146.129 416.312 146.281 415.44 146.423C414.568 146.545 413.776 146.656 413.066 146.758C411.545 146.981 410.216 147.336 409.08 147.823C407.944 148.31 407.062 148.969 406.433 149.801C405.804 150.612 405.49 151.626 405.49 152.843C405.49 154.608 406.129 155.957 407.407 156.89C408.705 157.803 410.348 158.26 412.336 158.26Z" fill="black"/>
<path d="M351.444 166.317V104H364.62V155.454H391.336V166.317H351.444Z" fill="black"/>
<path d="M333.134 104V166.317H320.171V104H333.134Z" fill="black"/>
<path d="M296.373 167.236C291.565 167.236 287.427 166.262 283.958 164.315C280.509 162.347 277.852 159.568 275.986 155.977C274.12 152.367 273.186 148.097 273.186 143.167C273.186 138.359 274.12 134.14 275.986 130.509C277.852 126.878 280.479 124.048 283.867 122.019C287.275 119.991 291.271 118.977 295.856 118.977C298.939 118.977 301.809 119.474 304.467 120.468C307.144 121.441 309.477 122.912 311.465 124.88C313.474 126.847 315.036 129.322 316.151 132.304C317.267 135.266 317.825 138.735 317.825 142.711V146.271H278.359V138.238H305.623C305.623 136.371 305.217 134.718 304.406 133.278C303.595 131.838 302.469 130.712 301.028 129.9C299.608 129.069 297.955 128.653 296.069 128.653C294.101 128.653 292.356 129.109 290.835 130.022C289.334 130.915 288.157 132.122 287.305 133.643C286.453 135.144 286.017 136.818 285.997 138.664V146.301C285.997 148.614 286.423 150.612 287.275 152.296C288.147 153.979 289.374 155.278 290.957 156.19C292.539 157.103 294.415 157.56 296.586 157.56C298.026 157.56 299.345 157.357 300.542 156.951C301.738 156.545 302.763 155.937 303.615 155.126C304.467 154.314 305.116 153.32 305.562 152.144L317.551 152.935C316.942 155.815 315.695 158.331 313.808 160.481C311.942 162.611 309.528 164.274 306.566 165.471C303.625 166.648 300.227 167.236 296.373 167.236Z" fill="black"/>
<path d="M247.806 167.236C243.08 167.236 238.992 166.232 235.544 164.224C232.115 162.195 229.468 159.375 227.602 155.764C225.735 152.133 224.802 147.924 224.802 143.137C224.802 138.309 225.735 134.089 227.602 130.478C229.468 126.847 232.115 124.028 235.544 122.019C238.992 119.991 243.08 118.977 247.806 118.977C252.533 118.977 256.61 119.991 260.038 122.019C263.487 124.028 266.144 126.847 268.011 130.478C269.877 134.089 270.81 138.309 270.81 143.137C270.81 147.924 269.877 152.133 268.011 155.764C266.144 159.375 263.487 162.195 260.038 164.224C256.61 166.232 252.533 167.236 247.806 167.236ZM247.867 157.195C250.017 157.195 251.813 156.586 253.253 155.369C254.693 154.132 255.778 152.448 256.509 150.318C257.259 148.188 257.635 145.764 257.635 143.045C257.635 140.327 257.259 137.903 256.509 135.773C255.778 133.643 254.693 131.959 253.253 130.722C251.813 129.485 250.017 128.866 247.867 128.866C245.696 128.866 243.871 129.485 242.39 130.722C240.929 131.959 239.824 133.643 239.073 135.773C238.343 137.903 237.978 140.327 237.978 143.045C237.978 145.764 238.343 148.188 239.073 150.318C239.824 152.448 240.929 154.132 242.39 155.369C243.871 156.586 245.696 157.195 247.867 157.195Z" fill="black"/>
<path d="M179 166.317V104H192.176V131.477H192.997L215.423 104H231.216L208.09 131.903L231.489 166.317H215.728L198.657 140.697L192.176 148.608V166.317H179Z" fill="black"/>
<rect x="141.797" y="115.148" width="38.7469" height="77.6749" rx="19.3735" transform="rotate(90 141.797 115.148)" fill="#154063"/>
<rect x="138.446" y="162.117" width="38.7469" height="77.6749" rx="19.3735" transform="rotate(135 138.446 162.117)" fill="#3779B5"/>
<mask id="mask0_3579_850" style="mask-type:alpha" maskUnits="userSpaceOnUse" x="64" y="115" width="78" height="39">
<rect x="141.797" y="115.148" width="38.7469" height="77.6749" rx="19.3735" transform="rotate(90 141.797 115.148)" fill="white"/>
</mask>
<g mask="url(#mask0_3579_850)">
<rect x="138.446" y="162.117" width="38.7469" height="77.6749" rx="19.3735" transform="rotate(135 138.446 162.117)" fill="#122438"/>
</g>
<path d="M71.5731 109.893C61.5416 106.171 52.3249 83.3427 52.7343 82.2393C53.1437 81.1359 75.0197 69.8437 85.0512 73.5656C95.0827 77.2875 100.198 88.4368 96.4757 98.4683C92.7538 108.5 81.6045 113.615 71.5731 109.893Z" fill="black"/>
</svg>
