<svg width="423" height="98" viewBox="0 0 423 98" fill="none" xmlns="http://www.w3.org/2000/svg">
<g clip-path="url(#clip0_3569_637)">
<path d="M151.38 80.984C145.866 80.984 140.903 80.078 136.491 78.2662C132.512 76.5298 129.198 74.1294 126.548 71.0645C126.151 70.6066 126.218 69.9181 126.677 69.5228L134.466 62.8049C134.934 62.4014 135.637 62.4516 136.064 62.8972C138.232 65.153 140.619 66.8097 143.227 67.8671C146.142 69.0488 149.214 69.6396 152.445 69.6396C153.784 69.6396 154.965 69.4821 155.989 69.167C157.092 68.8519 158.038 68.3792 158.825 67.7489C159.614 67.1186 160.205 66.4096 160.598 65.6218C161.071 64.7553 161.307 63.8098 161.307 62.7858C161.307 60.895 160.598 59.3982 159.181 58.2953C158.392 57.7438 157.132 57.1529 155.398 56.5228C153.744 55.8925 151.578 55.2622 148.899 54.632C144.646 53.5291 141.1 52.2685 138.264 50.8505C135.428 49.3536 133.222 47.6993 131.647 45.8873C130.307 44.3905 129.283 42.6967 128.574 40.806C127.943 38.9153 127.629 36.867 127.629 34.6612C127.629 31.9038 128.22 29.4222 129.401 27.2163C130.661 24.9317 132.355 22.9622 134.483 21.3079C136.61 19.6534 139.091 18.393 141.927 17.5264C144.763 16.6598 147.718 16.2266 150.791 16.2266C153.941 16.2266 156.974 16.6205 159.889 17.4083C162.883 18.196 165.64 19.3383 168.162 20.8351C170.441 22.0789 172.418 23.5652 174.093 25.2937C174.492 25.7066 174.487 26.3569 174.1 26.7827L167.517 34.0438C167.092 34.5122 166.366 34.5381 165.891 34.122C164.625 33.0156 163.255 32.0136 161.78 31.116C160.047 30.0131 158.274 29.1465 156.462 28.5162C154.651 27.8072 152.957 27.4527 151.38 27.4527C149.884 27.4527 148.544 27.6102 147.363 27.9254C146.182 28.1618 145.196 28.5557 144.409 29.1071C143.621 29.6586 142.99 30.3676 142.518 31.2342C142.124 32.022 141.927 32.9674 141.927 34.0703C142.006 35.0156 142.243 35.9216 142.636 36.7882C143.109 37.5761 143.739 38.2457 144.527 38.7971C145.393 39.3486 146.694 39.9788 148.427 40.6878C150.16 41.3968 152.405 42.0664 155.163 42.6967C159.023 43.7209 162.253 44.8632 164.852 46.1237C167.452 47.3842 169.5 48.8417 170.997 50.496C172.494 51.9141 173.558 53.5684 174.188 55.4591C174.818 57.3499 175.133 59.4375 175.133 61.7222C175.133 65.4249 174.07 68.7337 171.943 71.6486C169.894 74.5635 167.059 76.8481 163.434 78.5024C159.889 80.1569 155.871 80.984 151.38 80.984Z" fill="black"/>
<path d="M211.577 81.0935C206.456 81.0935 201.808 79.6754 197.633 76.8394C193.457 74.0032 190.109 70.143 187.589 65.2586C185.067 60.3743 183.806 54.8202 183.806 48.5966C183.806 42.3729 185.067 36.8189 187.589 31.9345C190.109 27.0501 193.536 23.2292 197.869 20.472C202.201 17.7146 207.087 16.3359 212.522 16.3359C215.673 16.3359 218.549 16.8087 221.149 17.754C223.748 18.6206 226.033 19.8811 228.002 21.5355C229.972 23.1899 231.587 25.0806 232.848 27.2076C233.864 28.8227 234.632 30.5283 235.148 32.325C235.378 33.1215 234.639 33.8212 233.836 33.6132L233.219 33.4533C232.722 33.3244 232.375 32.8757 232.375 32.3619V18.7633C232.375 18.1406 232.88 17.6358 233.502 17.6358H245.901C246.523 17.6358 247.029 18.1406 247.029 18.7633V78.7843C247.029 79.407 246.523 79.9118 245.901 79.9118H233.384C232.761 79.9118 232.257 79.407 232.257 78.7843V65.972C232.257 65.4233 232.652 64.9542 233.192 64.861L233.962 64.7282C234.77 64.589 235.444 65.329 235.153 66.0945C234.563 67.6493 233.717 69.1826 232.611 70.6944C231.193 72.664 229.381 74.4366 227.175 76.0121C225.049 77.509 222.645 78.7301 219.967 79.6754C217.367 80.6208 214.57 81.0935 211.577 81.0935ZM215.595 68.2129C218.983 68.2129 221.976 67.3856 224.576 65.7313C227.175 64.0769 229.184 61.7923 230.603 58.8774C232.099 55.8838 232.848 52.4568 232.848 48.5966C232.848 44.8151 232.099 41.4669 230.603 38.5521C229.184 35.6372 227.175 33.3526 224.576 31.6981C221.976 30.0438 218.983 29.2166 215.595 29.2166C212.207 29.2166 209.213 30.0438 206.614 31.6981C204.093 33.3526 202.124 35.6372 200.705 38.5521C199.287 41.4669 198.578 44.8151 198.578 48.5966C198.578 52.4568 199.287 55.8838 200.705 58.8774C202.124 61.7923 204.093 64.0769 206.614 65.7313C209.213 67.3856 212.207 68.2129 215.595 68.2129Z" fill="black"/>
<path d="M259.844 79.9098C259.221 79.9098 258.717 79.405 258.717 78.7823V18.7613C258.717 18.1387 259.221 17.6339 259.844 17.6339H271.909C272.523 17.6339 273.025 18.1258 273.036 18.7401L273.24 29.5495C273.247 29.9169 273.026 30.2503 272.685 30.3868C271.982 30.6681 271.294 29.9992 271.618 29.3142C272.263 27.9429 273.084 26.6492 274.079 25.4331C275.497 23.6212 277.191 22.085 279.16 20.8245C281.13 19.4852 283.217 18.461 285.423 17.752C287.629 16.9642 289.874 16.5703 292.159 16.5703C295.547 16.5703 298.54 17.1218 301.14 18.2248C303.818 19.2488 306.024 20.9033 307.757 23.1879C309.357 25.2045 310.587 27.7122 311.45 30.7109C311.613 31.2737 311.112 31.7928 310.538 31.6721C310.029 31.5648 309.758 31.0042 309.991 30.538L310.475 29.5691C311.342 27.6784 312.563 25.9846 314.139 24.4878C315.714 22.9122 317.487 21.5335 319.456 20.3518C321.426 19.0913 323.474 18.1459 325.601 17.5157C327.807 16.8855 329.973 16.5703 332.101 16.5703C336.827 16.5703 340.766 17.5157 343.917 19.4065C347.069 21.2972 349.433 24.1726 351.008 28.0329C352.583 31.8932 353.372 36.6594 353.372 42.3315V78.7823C353.372 79.405 352.866 79.9098 352.244 79.9098H339.845C339.223 79.9098 338.718 79.405 338.718 78.7823V43.2769C338.718 40.1257 338.285 37.5259 337.418 35.4777C336.63 33.4293 335.37 31.9325 333.637 30.9872C331.983 29.963 329.894 29.4509 327.374 29.4509C325.405 29.4509 323.514 29.8055 321.701 30.5144C319.968 31.1447 318.472 32.0901 317.211 33.3506C315.95 34.5323 314.966 35.9109 314.256 37.4865C313.548 39.0622 313.193 40.7953 313.193 42.686V78.7823C313.193 79.405 312.689 79.9098 312.066 79.9098H299.668C299.045 79.9098 298.541 79.405 298.541 78.7823V43.1588C298.541 40.1651 298.107 37.6835 297.24 35.7139C296.373 33.6657 295.114 32.1294 293.459 31.1054C291.804 30.0025 289.795 29.4509 287.432 29.4509C285.463 29.4509 283.611 29.8055 281.878 30.5144C280.145 31.1447 278.648 32.0507 277.387 33.2324C276.127 34.4141 275.142 35.7927 274.434 37.3684C273.725 38.944 273.369 40.6772 273.369 42.5679V78.7823C273.369 79.405 272.865 79.9098 272.242 79.9098H259.844Z" fill="black"/>
<path d="M395.808 80.985C389.269 80.985 383.478 79.6064 378.436 76.8491C373.473 74.0918 369.574 70.3497 366.738 65.6229C363.98 60.8173 362.602 55.3421 362.602 49.1971C362.602 44.3127 363.39 39.8617 364.965 35.8439C366.541 31.826 368.708 28.3597 371.465 25.4448C374.301 22.4512 377.649 20.1665 381.509 18.5909C385.448 16.9366 389.742 16.1094 394.39 16.1094C398.487 16.1094 402.308 16.8972 405.852 18.4728C409.397 20.0485 412.47 22.2149 415.07 24.9722C417.669 27.6507 419.639 30.8807 420.978 34.6622C422.396 38.3649 423.066 42.422 422.987 46.8338L422.895 50.8138C422.88 51.4261 422.38 51.9151 421.767 51.9151H373.27C372.762 51.9151 372.317 51.5754 372.182 51.0854L370.083 43.414C369.886 42.6965 370.426 41.9888 371.169 41.9888H409.377C409.877 41.9888 410.135 42.5861 409.793 42.9502C409.438 43.3263 408.807 43.0758 408.807 42.5592V41.3978C408.571 38.9557 407.783 36.8286 406.443 35.0166C405.104 33.1259 403.371 31.6685 401.244 30.6443C399.195 29.5414 396.91 28.99 394.39 28.99C390.53 28.99 387.261 29.7384 384.581 31.2352C381.982 32.732 380.013 34.8986 378.673 37.7346C377.334 40.492 376.665 43.9583 376.665 48.1336C376.665 52.1515 377.491 55.6571 379.146 58.6508C380.879 61.6444 383.282 63.9685 386.354 65.6229C389.506 67.1985 393.169 67.9863 397.345 67.9863C400.259 67.9863 402.938 67.5137 405.379 66.5682C407.549 65.7287 409.874 64.2987 412.353 62.2785C412.866 61.8602 413.629 61.9499 414.016 62.4878L419.925 70.7229C420.256 71.1848 420.194 71.823 419.764 72.1954C417.817 73.8842 415.621 75.3567 413.179 76.6127C410.5 77.952 407.664 79.0155 404.671 79.8033C401.677 80.5911 398.723 80.985 395.808 80.985Z" fill="black"/>
<path d="M59.3502 19.8646C60.9393 18.0196 60.411 16.5037 58.1756 16.4989L4.17359 16.2891C1.93823 16.2795 0.109314 18.4201 0.109314 21.0422V60.2535C0.109314 62.8756 1.93823 65.0162 4.17359 65.0114L44.4099 64.9113C46.6453 64.9065 48.4823 62.7564 48.4904 60.1345L48.5108 53.4601C48.5189 50.8381 46.698 48.7024 44.4627 48.7118L19.6178 48.8216C17.3825 48.831 15.1878 48.8597 14.7406 48.8882C14.2937 48.9169 13.9279 46.7906 13.9279 44.1686V37.4943C13.9279 34.8722 15.7567 32.7127 17.9921 32.6983L44.4099 32.5124C46.6453 32.4981 49.7748 30.9773 51.3639 29.1324L59.3502 19.8694V19.8646Z" fill="black"/>
<path d="M59.3502 19.8646C60.9393 18.0196 60.411 16.5037 58.1756 16.4989L4.17359 16.2891C1.93823 16.2795 0.109314 18.4201 0.109314 21.0422V60.2535C0.109314 62.8756 1.93823 65.0162 4.17359 65.0114L44.4099 64.9113C46.6453 64.9065 48.4823 62.7564 48.4904 60.1345L48.5108 53.4601C48.5189 50.8381 46.698 48.7024 44.4627 48.7118L19.6178 48.8216C17.3825 48.831 15.1878 48.8597 14.7406 48.8882C14.2937 48.9169 13.9279 46.7906 13.9279 44.1686V37.4943C13.9279 34.8722 15.7567 32.7127 17.9921 32.6983L44.4099 32.5124C46.6453 32.4981 49.7748 30.9773 51.3639 29.1324L59.3502 19.8694V19.8646Z" fill="black"/>
<path d="M37.7287 77.5374C36.1396 79.3824 36.6679 80.8984 38.9033 80.9032L92.9052 81.1129C95.1406 81.1225 96.9696 78.982 96.9696 76.36V37.1485C96.9696 34.5264 95.1406 32.3859 92.9052 32.3906L52.6689 32.4908C50.4336 32.4956 48.5965 34.6456 48.5884 37.2677L48.5681 43.9419C48.56 46.564 50.3807 48.6998 52.6161 48.6902L77.461 48.5806C79.6963 48.571 81.8911 48.5425 82.3381 48.5138C82.7852 48.4853 83.151 50.6115 83.151 53.2335V59.9078C83.151 62.5298 81.322 64.6895 79.0867 64.7037L52.6689 64.8897C50.4336 64.904 47.3041 66.4248 45.7149 68.2698L37.7287 77.5327V77.5374Z" fill="black"/>
<path d="M37.7287 77.5374C36.1396 79.3824 36.6679 80.8984 38.9033 80.9032L92.9052 81.1129C95.1406 81.1225 96.9696 78.982 96.9696 76.36V37.1485C96.9696 34.5264 95.1406 32.3859 92.9052 32.3906L52.6689 32.4908C50.4336 32.4956 48.5965 34.6456 48.5884 37.2677L48.5681 43.9419C48.56 46.564 50.3807 48.6998 52.6161 48.6902L77.461 48.5806C79.6963 48.571 81.8911 48.5425 82.3381 48.5138C82.7852 48.4853 83.151 50.6115 83.151 53.2335V59.9078C83.151 62.5298 81.322 64.6895 79.0867 64.7037L52.6689 64.8897C50.4336 64.904 47.3041 66.4248 45.7149 68.2698L37.7287 77.5327V77.5374Z" fill="black"/>
<path d="M64.5275 16.0636C62.1407 16.0492 61.5765 14.5219 63.2734 12.6689L71.8007 3.36593C73.4974 1.51299 76.8389 0 79.2257 0H92.6785C95.0653 0 97.0182 2.15458 97.0182 4.78794V11.4911C97.0182 14.1244 95.0653 16.2646 92.6785 16.2503L64.5275 16.0636Z" fill="black"/>
<path d="M32.6001 81.3587C34.9869 81.373 35.551 82.9004 33.8542 84.7533L25.3269 94.0562C23.6301 95.9092 20.2885 97.4222 17.9017 97.4222H4.44893C2.06215 97.4222 0.109314 95.2676 0.109314 92.6343V85.9311C0.109314 83.2977 2.06215 81.1575 4.44893 81.1719L32.6001 81.3587Z" fill="black"/>
</g>
<defs>
<clipPath id="clip0_3569_637">
<rect width="423" height="97.4189" fill="white"/>
</clipPath>
</defs>
</svg>
